<svg width="203" height="39" viewBox="0 0 203 39" fill="none" xmlns="http://www.w3.org/2000/svg">
<path d="M8.78411 3.096C11.4241 3.096 13.7401 3.612 15.7321 4.644C17.7481 5.676 19.2961 7.152 20.3761 9.072C21.4801 10.968 22.0321 13.176 22.0321 15.696C22.0321 18.216 21.4801 20.424 20.3761 22.32C19.2961 24.192 17.7481 25.644 15.7321 26.676C13.7401 27.708 11.4241 28.224 8.78411 28.224H0.000113487V3.096H8.78411ZM8.60411 23.94C11.2441 23.94 13.2841 23.22 14.7241 21.78C16.1641 20.34 16.8841 18.312 16.8841 15.696C16.8841 13.08 16.1641 11.04 14.7241 9.576C13.2841 8.088 11.2441 7.344 8.60411 7.344H5.04011V23.94H8.60411ZM44.3448 17.82C44.3448 18.54 44.2968 19.188 44.2008 19.764H29.6208C29.7408 21.204 30.2448 22.332 31.1328 23.148C32.0208 23.964 33.1128 24.372 34.4088 24.372C36.2808 24.372 37.6128 23.568 38.4048 21.96H43.8408C43.2648 23.88 42.1608 25.464 40.5288 26.712C38.8968 27.936 36.8928 28.548 34.5168 28.548C32.5968 28.548 30.8688 28.128 29.3328 27.288C27.8208 26.424 26.6328 25.212 25.7688 23.652C24.9288 22.092 24.5088 20.292 24.5088 18.252C24.5088 16.188 24.9288 14.376 25.7688 12.816C26.6088 11.256 27.7848 10.056 29.2968 9.216C30.8088 8.376 32.5488 7.956 34.5168 7.956C36.4128 7.956 38.1048 8.364 39.5928 9.18C41.1048 9.996 42.2688 11.16 43.0848 12.672C43.9248 14.16 44.3448 15.876 44.3448 17.82ZM39.1248 16.38C39.1008 15.084 38.6328 14.052 37.7208 13.284C36.8088 12.492 35.6928 12.096 34.3728 12.096C33.1248 12.096 32.0688 12.48 31.2048 13.248C30.3648 13.992 29.8488 15.036 29.6568 16.38H39.1248ZM55.6556 28.548C54.0236 28.548 52.5596 28.26 51.2636 27.684C49.9676 27.084 48.9356 26.28 48.1676 25.272C47.4236 24.264 47.0156 23.148 46.9436 21.924H52.0196C52.1156 22.692 52.4876 23.328 53.1356 23.832C53.8076 24.336 54.6356 24.588 55.6196 24.588C56.5796 24.588 57.3236 24.396 57.8516 24.012C58.4036 23.628 58.6796 23.136 58.6796 22.536C58.6796 21.888 58.3436 21.408 57.6716 21.096C57.0236 20.76 55.9796 20.4 54.5396 20.016C53.0516 19.656 51.8276 19.284 50.8676 18.9C49.9316 18.516 49.1156 17.928 48.4196 17.136C47.7476 16.344 47.4116 15.276 47.4116 13.932C47.4116 12.828 47.7236 11.82 48.3476 10.908C48.9956 9.996 49.9076 9.276 51.0836 8.748C52.2836 8.22 53.6876 7.956 55.2956 7.956C57.6716 7.956 59.5676 8.556 60.9836 9.756C62.3996 10.932 63.1796 12.528 63.3236 14.544H58.4996C58.4276 13.752 58.0916 13.128 57.4916 12.672C56.9156 12.192 56.1356 11.952 55.1516 11.952C54.2396 11.952 53.5316 12.12 53.0276 12.456C52.5476 12.792 52.3076 13.26 52.3076 13.86C52.3076 14.532 52.6436 15.048 53.3156 15.408C53.9876 15.744 55.0316 16.092 56.4476 16.452C57.8876 16.812 59.0756 17.184 60.0116 17.568C60.9476 17.952 61.7516 18.552 62.4236 19.368C63.1196 20.16 63.4796 21.216 63.5036 22.536C63.5036 23.688 63.1796 24.72 62.5316 25.632C61.9076 26.544 60.9956 27.264 59.7956 27.792C58.6196 28.296 57.2396 28.548 55.6556 28.548ZM70.1967 5.904C69.3087 5.904 68.5647 5.628 67.9647 5.076C67.3887 4.5 67.1007 3.792 67.1007 2.952C67.1007 2.112 67.3887 1.416 67.9647 0.864001C68.5647 0.288001 69.3087 1.43051e-06 70.1967 1.43051e-06C71.0847 1.43051e-06 71.8167 0.288001 72.3927 0.864001C72.9927 1.416 73.2927 2.112 73.2927 2.952C73.2927 3.792 72.9927 4.5 72.3927 5.076C71.8167 5.628 71.0847 5.904 70.1967 5.904ZM72.6807 8.28V28.224H67.6407V8.28H72.6807ZM85.4723 7.956C86.9603 7.956 88.2683 8.256 89.3963 8.856C90.5243 9.432 91.4123 10.188 92.0603 11.124V8.28H97.1363V28.368C97.1363 30.216 96.7643 31.86 96.0203 33.3C95.2763 34.764 94.1603 35.916 92.6723 36.756C91.1843 37.62 89.3843 38.052 87.2723 38.052C84.4403 38.052 82.1123 37.392 80.2883 36.072C78.4883 34.752 77.4683 32.952 77.2283 30.672H82.2323C82.4963 31.584 83.0603 32.304 83.9243 32.832C84.8123 33.384 85.8803 33.66 87.1283 33.66C88.5923 33.66 89.7803 33.216 90.6923 32.328C91.6043 31.464 92.0603 30.144 92.0603 28.368V25.272C91.4123 26.208 90.5123 26.988 89.3603 27.612C88.2323 28.236 86.9363 28.548 85.4723 28.548C83.7923 28.548 82.2563 28.116 80.8643 27.252C79.4723 26.388 78.3683 25.176 77.5523 23.616C76.7603 22.032 76.3643 20.22 76.3643 18.18C76.3643 16.164 76.7603 14.376 77.5523 12.816C78.3683 11.256 79.4603 10.056 80.8283 9.216C82.2203 8.376 83.7683 7.956 85.4723 7.956ZM92.0603 18.252C92.0603 17.028 91.8203 15.984 91.3403 15.12C90.8603 14.232 90.2123 13.56 89.3963 13.104C88.5803 12.624 87.7043 12.384 86.7683 12.384C85.8323 12.384 84.9683 12.612 84.1763 13.068C83.3843 13.524 82.7363 14.196 82.2323 15.084C81.7523 15.948 81.5123 16.98 81.5123 18.18C81.5123 19.38 81.7523 20.436 82.2323 21.348C82.7363 22.236 83.3843 22.92 84.1763 23.4C84.9923 23.88 85.8563 24.12 86.7683 24.12C87.7043 24.12 88.5803 23.892 89.3963 23.436C90.2123 22.956 90.8603 22.284 91.3403 21.42C91.8203 20.532 92.0603 19.476 92.0603 18.252ZM113.111 7.992C115.487 7.992 117.407 8.748 118.871 10.26C120.335 11.748 121.067 13.836 121.067 16.524V28.224H116.027V17.208C116.027 15.624 115.631 14.412 114.839 13.572C114.047 12.708 112.967 12.276 111.599 12.276C110.207 12.276 109.103 12.708 108.287 13.572C107.495 14.412 107.099 15.624 107.099 17.208V28.224H102.059V8.28H107.099V10.764C107.771 9.9 108.623 9.228 109.655 8.748C110.711 8.244 111.863 7.992 113.111 7.992ZM141.375 3.096V7.164H130.899V13.608H138.927V17.604H130.899V28.224H125.859V3.096H141.375ZM147.505 5.904C146.617 5.904 145.873 5.628 145.273 5.076C144.697 4.5 144.409 3.792 144.409 2.952C144.409 2.112 144.697 1.416 145.273 0.864001C145.873 0.288001 146.617 1.43051e-06 147.505 1.43051e-06C148.393 1.43051e-06 149.125 0.288001 149.701 0.864001C150.301 1.416 150.601 2.112 150.601 2.952C150.601 3.792 150.301 4.5 149.701 5.076C149.125 5.628 148.393 5.904 147.505 5.904ZM149.989 8.28V28.224H144.949V8.28H149.989ZM160.009 11.376C160.657 10.32 161.497 9.492 162.529 8.892C163.585 8.292 164.785 7.992 166.129 7.992V13.284H164.797C163.213 13.284 162.013 13.656 161.197 14.4C160.405 15.144 160.009 16.44 160.009 18.288V28.224H154.969V8.28H160.009V11.376ZM194.292 7.992C196.74 7.992 198.708 8.748 200.196 10.26C201.708 11.748 202.464 13.836 202.464 16.524V28.224H197.424V17.208C197.424 15.648 197.028 14.46 196.236 13.644C195.444 12.804 194.364 12.384 192.996 12.384C191.628 12.384 190.536 12.804 189.72 13.644C188.928 14.46 188.532 15.648 188.532 17.208V28.224H183.492V17.208C183.492 15.648 183.096 14.46 182.304 13.644C181.512 12.804 180.432 12.384 179.064 12.384C177.672 12.384 176.568 12.804 175.752 13.644C174.96 14.46 174.564 15.648 174.564 17.208V28.224H169.524V8.28H174.564V10.692C175.212 9.852 176.04 9.192 177.048 8.712C178.08 8.232 179.208 7.992 180.432 7.992C181.992 7.992 183.384 8.328 184.608 9C185.832 9.648 186.78 10.584 187.452 11.808C188.1 10.656 189.036 9.732 190.26 9.036C191.508 8.34 192.852 7.992 194.292 7.992Z" fill="white"/>
</svg>
